<svg version="1.1" xmlns="http://www.w3.org/2000/svg" xmlns:xlink="http://www.w3.org/1999/xlink" width="893.72802734375" height="729"><defs/><g><g><rect fill="#C0C0C0" stroke="none" x="423" y="103" width="96.72802734375" height="166" transform="matrix(1 0 0 1 -230 -30)" fill-opacity="0.2"/></g><g><rect fill="#ffffff" stroke="none" x="416" y="96" width="96.72802734375" height="166" transform="matrix(1 0 0 1 -230 -30)"/></g><g><path fill="none" stroke="#000000" paint-order="fill stroke markers" d=" M 186 66 L 282.72802734375 66 L 282.72802734375 232 L 186 232 L 186 66 Z Z" stroke-miterlimit="10" stroke-dasharray=""/></g><g><path fill="none" stroke="#000000" paint-order="fill stroke markers" d=" M 186 104 L 282.72802734375 104" stroke-miterlimit="10" stroke-dasharray=""/></g><g><g><path fill="none" stroke="none"/><text fill="#000000" stroke="none" font-family="Arial" font-size="13px" font-style="normal" font-weight="normal" text-decoration="undefined" x="464.864013671875" y="107.5" text-anchor="middle" dominant-baseline="central" transform="matrix(1 0 0 1 -230 -30)">«enumeration»</text></g></g><g><g><path fill="none" stroke="none"/><text fill="#000000" stroke="none" font-family="Arial" font-size="13px" font-style="normal" font-weight="bold" text-decoration="undefined" x="464.864013671875" y="122.5" text-anchor="middle" dominant-baseline="central" transform="matrix(1 0 0 1 -230 -30)">BloodType</text></g></g><g><g><path fill="none" stroke="none"/><text fill="#000000" stroke="none" font-family="Arial" font-size="13px" font-style="normal" font-weight="normal" text-decoration="undefined" x="421" y="145.5" text-anchor="start" dominant-baseline="central" transform="matrix(1 0 0 1 -230 -30)">A_NEG</text></g></g><g><g><path fill="none" stroke="none"/><text fill="#000000" stroke="none" font-family="Arial" font-size="13px" font-style="normal" font-weight="normal" text-decoration="undefined" x="421" y="160.5" text-anchor="start" dominant-baseline="central" transform="matrix(1 0 0 1 -230 -30)">B_NEG</text></g></g><g><g><path fill="none" stroke="none"/><text fill="#000000" stroke="none" font-family="Arial" font-size="13px" font-style="normal" font-weight="normal" text-decoration="undefined" x="421" y="175.5" text-anchor="start" dominant-baseline="central" transform="matrix(1 0 0 1 -230 -30)">O_NEG</text></g></g><g><g><path fill="none" stroke="none"/><text fill="#000000" stroke="none" font-family="Arial" font-size="13px" font-style="normal" font-weight="normal" text-decoration="undefined" x="421" y="190.5" text-anchor="start" dominant-baseline="central" transform="matrix(1 0 0 1 -230 -30)">O_POS</text></g></g><g><g><path fill="none" stroke="none"/><text fill="#000000" stroke="none" font-family="Arial" font-size="13px" font-style="normal" font-weight="normal" text-decoration="undefined" x="421" y="205.5" text-anchor="start" dominant-baseline="central" transform="matrix(1 0 0 1 -230 -30)">B_POS</text></g></g><g><g><path fill="none" stroke="none"/><text fill="#000000" stroke="none" font-family="Arial" font-size="13px" font-style="normal" font-weight="normal" text-decoration="undefined" x="421" y="220.5" text-anchor="start" dominant-baseline="central" transform="matrix(1 0 0 1 -230 -30)">A_POS</text></g></g><g><g><path fill="none" stroke="none"/><text fill="#000000" stroke="none" font-family="Arial" font-size="13px" font-style="normal" font-weight="normal" text-decoration="undefined" x="421" y="235.5" text-anchor="start" dominant-baseline="central" transform="matrix(1 0 0 1 -230 -30)">AB_NEG</text></g></g><g><g><path fill="none" stroke="none"/><text fill="#000000" stroke="none" font-family="Arial" font-size="13px" font-style="normal" font-weight="normal" text-decoration="undefined" x="421" y="250.5" text-anchor="start" dominant-baseline="central" transform="matrix(1 0 0 1 -230 -30)">AB_POS</text></g></g><g><rect fill="#C0C0C0" stroke="none" x="895" y="159" width="96.72802734375" height="76" transform="matrix(1 0 0 1 -230 -30)" fill-opacity="0.2"/></g><g><rect fill="#ffffff" stroke="none" x="888" y="152" width="96.72802734375" height="76" transform="matrix(1 0 0 1 -230 -30)"/></g><g><path fill="none" stroke="#000000" paint-order="fill stroke markers" d=" M 658 122 L 754.72802734375 122 L 754.72802734375 198 L 658 198 L 658 122 Z Z" stroke-miterlimit="10" stroke-dasharray=""/></g><g><path fill="none" stroke="#000000" paint-order="fill stroke markers" d=" M 658 160 L 754.72802734375 160" stroke-miterlimit="10" stroke-dasharray=""/></g><g><g><path fill="none" stroke="none"/><text fill="#000000" stroke="none" font-family="Arial" font-size="13px" font-style="normal" font-weight="normal" text-decoration="undefined" x="936.864013671875" y="163.5" text-anchor="middle" dominant-baseline="central" transform="matrix(1 0 0 1 -230 -30)">«enumeration»</text></g></g><g><g><path fill="none" stroke="none"/><text fill="#000000" stroke="none" font-family="Arial" font-size="13px" font-style="normal" font-weight="bold" text-decoration="undefined" x="936.864013671875" y="178.5" text-anchor="middle" dominant-baseline="central" transform="matrix(1 0 0 1 -230 -30)">Gender</text></g></g><g><g><path fill="none" stroke="none"/><text fill="#000000" stroke="none" font-family="Arial" font-size="13px" font-style="normal" font-weight="normal" text-decoration="undefined" x="893" y="201.5" text-anchor="start" dominant-baseline="central" transform="matrix(1 0 0 1 -230 -30)">MALE</text></g></g><g><g><path fill="none" stroke="none"/><text fill="#000000" stroke="none" font-family="Arial" font-size="13px" font-style="normal" font-weight="normal" text-decoration="undefined" x="893" y="216.5" text-anchor="start" dominant-baseline="central" transform="matrix(1 0 0 1 -230 -30)">FEMALE</text></g></g><g><rect fill="#C0C0C0" stroke="none" x="247" y="455" width="99.80029296875" height="96" transform="matrix(1 0 0 1 -230 -30)" fill-opacity="0.2"/></g><g><rect fill="#ffffff" stroke="none" x="240" y="448" width="99.80029296875" height="96" transform="matrix(1 0 0 1 -230 -30)"/></g><g><path fill="none" stroke="#000000" paint-order="fill stroke markers" d=" M 10 418 L 109.80029296875 418 L 109.80029296875 514 L 10 514 L 10 418 Z Z" stroke-miterlimit="10" stroke-dasharray=""/></g><g><path fill="none" stroke="#000000" paint-order="fill stroke markers" d=" M 10 456 L 109.80029296875 456" stroke-miterlimit="10" stroke-dasharray=""/></g><g><g><path fill="none" stroke="none"/><text fill="#000000" stroke="none" font-family="Arial" font-size="13px" font-style="normal" font-weight="normal" text-decoration="undefined" x="290.400146484375" y="459.5" text-anchor="middle" dominant-baseline="central" transform="matrix(1 0 0 1 -230 -30)">«enumeration»</text></g></g><g><g><path fill="none" stroke="none"/><text fill="#000000" stroke="none" font-family="Arial" font-size="13px" font-style="normal" font-weight="bold" text-decoration="undefined" x="290.400146484375" y="474.5" text-anchor="middle" dominant-baseline="central" transform="matrix(1 0 0 1 -230 -30)">DonorStatus</text></g></g><g><g><path fill="none" stroke="none"/><text fill="#000000" stroke="none" font-family="Arial" font-size="13px" font-style="normal" font-weight="normal" text-decoration="undefined" x="245" y="497.5" text-anchor="start" dominant-baseline="central" transform="matrix(1 0 0 1 -230 -30)">AVAILABLE</text></g></g><g><g><path fill="none" stroke="none"/><text fill="#000000" stroke="none" font-family="Arial" font-size="13px" font-style="normal" font-weight="normal" text-decoration="undefined" x="245" y="512.5" text-anchor="start" dominant-baseline="central" transform="matrix(1 0 0 1 -230 -30)">UNAVAILABLE</text></g></g><g><g><path fill="none" stroke="none"/><text fill="#000000" stroke="none" font-family="Arial" font-size="13px" font-style="normal" font-weight="normal" text-decoration="undefined" x="245" y="527.5" text-anchor="start" dominant-baseline="central" transform="matrix(1 0 0 1 -230 -30)">INELIGIBLE</text></g></g><g><rect fill="#C0C0C0" stroke="none" x="839" y="623" width="96.72802734375" height="91" transform="matrix(1 0 0 1 -230 -30)" fill-opacity="0.2"/></g><g><rect fill="#ffffff" stroke="none" x="832" y="616" width="96.72802734375" height="91" transform="matrix(1 0 0 1 -230 -30)"/></g><g><path fill="none" stroke="#000000" paint-order="fill stroke markers" d=" M 602 586 L 698.72802734375 586 L 698.72802734375 677 L 602 677 L 602 586 Z Z" stroke-miterlimit="10" stroke-dasharray=""/></g><g><path fill="none" stroke="#000000" paint-order="fill stroke markers" d=" M 602 624 L 698.72802734375 624" stroke-miterlimit="10" stroke-dasharray=""/></g><g><g><path fill="none" stroke="none"/><text fill="#000000" stroke="none" font-family="Arial" font-size="13px" font-style="normal" font-weight="normal" text-decoration="undefined" x="880.864013671875" y="627.5" text-anchor="middle" dominant-baseline="central" transform="matrix(1 0 0 1 -230 -30)">«enumeration»</text></g></g><g><g><path fill="none" stroke="none"/><text fill="#000000" stroke="none" font-family="Arial" font-size="13px" font-style="normal" font-weight="bold" text-decoration="undefined" x="880.864013671875" y="642.5" text-anchor="middle" dominant-baseline="central" transform="matrix(1 0 0 1 -230 -30)">Urgency</text></g></g><g><g><path fill="none" stroke="none"/><text fill="#000000" stroke="none" font-family="Arial" font-size="13px" font-style="normal" font-weight="normal" text-decoration="undefined" x="837" y="665.5" text-anchor="start" dominant-baseline="central" transform="matrix(1 0 0 1 -230 -30)">CRITICAL</text></g></g><g><g><path fill="none" stroke="none"/><text fill="#000000" stroke="none" font-family="Arial" font-size="13px" font-style="normal" font-weight="normal" text-decoration="undefined" x="837" y="680.5" text-anchor="start" dominant-baseline="central" transform="matrix(1 0 0 1 -230 -30)">URGENT</text></g></g><g><g><path fill="none" stroke="none"/><text fill="#000000" stroke="none" font-family="Arial" font-size="13px" font-style="normal" font-weight="normal" text-decoration="undefined" x="837" y="695.5" text-anchor="start" dominant-baseline="central" transform="matrix(1 0 0 1 -230 -30)">NORMAL</text></g></g><g><rect fill="#C0C0C0" stroke="none" x="1023" y="463" width="96.72802734375" height="76" transform="matrix(1 0 0 1 -230 -30)" fill-opacity="0.2"/></g><g><rect fill="#ffffff" stroke="none" x="1016" y="456" width="96.72802734375" height="76" transform="matrix(1 0 0 1 -230 -30)"/></g><g><path fill="none" stroke="#000000" paint-order="fill stroke markers" d=" M 786 426 L 882.72802734375 426 L 882.72802734375 502 L 786 502 L 786 426 Z Z" stroke-miterlimit="10" stroke-dasharray=""/></g><g><path fill="none" stroke="#000000" paint-order="fill stroke markers" d=" M 786 464 L 882.72802734375 464" stroke-miterlimit="10" stroke-dasharray=""/></g><g><g><path fill="none" stroke="none"/><text fill="#000000" stroke="none" font-family="Arial" font-size="13px" font-style="normal" font-weight="normal" text-decoration="undefined" x="1064.864013671875" y="467.5" text-anchor="middle" dominant-baseline="central" transform="matrix(1 0 0 1 -230 -30)">«enumeration»</text></g></g><g><g><path fill="none" stroke="none"/><text fill="#000000" stroke="none" font-family="Arial" font-size="13px" font-style="normal" font-weight="bold" text-decoration="undefined" x="1064.864013671875" y="482.5" text-anchor="middle" dominant-baseline="central" transform="matrix(1 0 0 1 -230 -30)">ReceiverState</text></g></g><g><g><path fill="none" stroke="none"/><text fill="#000000" stroke="none" font-family="Arial" font-size="13px" font-style="normal" font-weight="normal" text-decoration="undefined" x="1021" y="505.5" text-anchor="start" dominant-baseline="central" transform="matrix(1 0 0 1 -230 -30)">PENDING</text></g></g><g><g><path fill="none" stroke="none"/><text fill="#000000" stroke="none" font-family="Arial" font-size="13px" font-style="normal" font-weight="normal" text-decoration="undefined" x="1021" y="520.5" text-anchor="start" dominant-baseline="central" transform="matrix(1 0 0 1 -230 -30)">SATISFIED</text></g></g><g><rect fill="#C0C0C0" stroke="none" x="639" y="223" width="144" height="163" transform="matrix(1 0 0 1 -230 -30)" fill-opacity="0.2"/></g><g><rect fill="#ffffff" stroke="none" x="632" y="216" width="144" height="163" transform="matrix(1 0 0 1 -230 -30)"/></g><g><path fill="none" stroke="#000000" paint-order="fill stroke markers" d=" M 402 186 L 546 186 L 546 349 L 402 349 L 402 186 Z Z" stroke-miterlimit="10" stroke-dasharray=""/></g><g><path fill="none" stroke="#000000" paint-order="fill stroke markers" d=" M 402 211 L 546 211" stroke-miterlimit="10" stroke-dasharray=""/></g><g><path fill="none" stroke="#000000" paint-order="fill stroke markers" d=" M 402 339 L 546 339" stroke-miterlimit="10" stroke-dasharray=""/></g><g><g><path fill="none" stroke="none"/><text fill="#000000" stroke="none" font-family="Arial" font-size="13px" font-style="italic" font-weight="bold" text-decoration="undefined" x="704.5" y="229.5" text-anchor="middle" dominant-baseline="central" transform="matrix(1 0 0 1 -230 -30)">User</text></g></g><g><g><path fill="none" stroke="none"/><text fill="#000000" stroke="none" font-family="Arial" font-size="13px" font-style="normal" font-weight="normal" text-decoration="undefined" x="637" y="252.5" text-anchor="start" dominant-baseline="central" transform="matrix(1 0 0 1 -230 -30)">-name: string</text></g></g><g><g><path fill="none" stroke="none"/><text fill="#000000" stroke="none" font-family="Arial" font-size="13px" font-style="normal" font-weight="normal" text-decoration="undefined" x="637" y="267.5" text-anchor="start" dominant-baseline="central" transform="matrix(1 0 0 1 -230 -30)">-email: string</text></g></g><g><g><path fill="none" stroke="none"/><text fill="#000000" stroke="none" font-family="Arial" font-size="13px" font-style="normal" font-weight="normal" text-decoration="undefined" x="637" y="282.5" text-anchor="start" dominant-baseline="central" transform="matrix(1 0 0 1 -230 -30)">-password: string</text></g></g><g><g><path fill="none" stroke="none"/><text fill="#000000" stroke="none" font-family="Arial" font-size="13px" font-style="normal" font-weight="normal" text-decoration="undefined" x="637" y="297.5" text-anchor="start" dominant-baseline="central" transform="matrix(1 0 0 1 -230 -30)">-phone: string</text></g></g><g><g><path fill="none" stroke="none"/><text fill="#000000" stroke="none" font-family="Arial" font-size="13px" font-style="normal" font-weight="normal" text-decoration="undefined" x="637" y="312.5" text-anchor="start" dominant-baseline="central" transform="matrix(1 0 0 1 -230 -30)">-cin: string</text></g></g><g><g><path fill="none" stroke="none"/><text fill="#000000" stroke="none" font-family="Arial" font-size="13px" font-style="normal" font-weight="normal" text-decoration="undefined" x="637" y="327.5" text-anchor="start" dominant-baseline="central" transform="matrix(1 0 0 1 -230 -30)">-dateOfBirth: Date</text></g></g><g><g><path fill="none" stroke="none"/><text fill="#000000" stroke="none" font-family="Arial" font-size="13px" font-style="normal" font-weight="normal" text-decoration="undefined" x="637" y="342.5" text-anchor="start" dominant-baseline="central" transform="matrix(1 0 0 1 -230 -30)">-sex: Gender</text></g></g><g><g><path fill="none" stroke="none"/><text fill="#000000" stroke="none" font-family="Arial" font-size="13px" font-style="normal" font-weight="normal" text-decoration="undefined" x="637" y="357.5" text-anchor="start" dominant-baseline="central" transform="matrix(1 0 0 1 -230 -30)">-bloodType: BloodType</text></g></g><g><rect fill="#C0C0C0" stroke="none" x="447" y="463" width="148.74072265625" height="88" transform="matrix(1 0 0 1 -230 -30)" fill-opacity="0.2"/></g><g><rect fill="#ffffff" stroke="none" x="440" y="456" width="148.74072265625" height="88" transform="matrix(1 0 0 1 -230 -30)"/></g><g><path fill="none" stroke="#000000" paint-order="fill stroke markers" d=" M 210 426 L 358.74072265625 426 L 358.74072265625 514 L 210 514 L 210 426 Z Z" stroke-miterlimit="10" stroke-dasharray=""/></g><g><path fill="none" stroke="#000000" paint-order="fill stroke markers" d=" M 210 451 L 358.74072265625 451" stroke-miterlimit="10" stroke-dasharray=""/></g><g><path fill="none" stroke="#000000" paint-order="fill stroke markers" d=" M 210 489 L 358.74072265625 489" stroke-miterlimit="10" stroke-dasharray=""/></g><g><g><path fill="none" stroke="none"/><text fill="#000000" stroke="none" font-family="Arial" font-size="13px" font-style="normal" font-weight="bold" text-decoration="undefined" x="514.870361328125" y="469.5" text-anchor="middle" dominant-baseline="central" transform="matrix(1 0 0 1 -230 -30)">Donor</text></g></g><g><g><path fill="none" stroke="none"/><text fill="#000000" stroke="none" font-family="Arial" font-size="13px" font-style="normal" font-weight="normal" text-decoration="undefined" x="445" y="492.5" text-anchor="start" dominant-baseline="central" transform="matrix(1 0 0 1 -230 -30)">-weight: real</text></g></g><g><g><path fill="none" stroke="none"/><text fill="#000000" stroke="none" font-family="Arial" font-size="13px" font-style="normal" font-weight="normal" text-decoration="undefined" x="445" y="507.5" text-anchor="start" dominant-baseline="central" transform="matrix(1 0 0 1 -230 -30)">-status: DonorStatus</text></g></g><g><rect fill="#C0C0C0" stroke="none" x="807" y="455" width="152" height="88" transform="matrix(1 0 0 1 -230 -30)" fill-opacity="0.2"/></g><g><rect fill="#ffffff" stroke="none" x="800" y="448" width="152" height="88" transform="matrix(1 0 0 1 -230 -30)"/></g><g><path fill="none" stroke="#000000" paint-order="fill stroke markers" d=" M 570 418 L 722 418 L 722 506 L 570 506 L 570 418 Z Z" stroke-miterlimit="10" stroke-dasharray=""/></g><g><path fill="none" stroke="#000000" paint-order="fill stroke markers" d=" M 570 443 L 722 443" stroke-miterlimit="10" stroke-dasharray=""/></g><g><path fill="none" stroke="#000000" paint-order="fill stroke markers" d=" M 570 481 L 722 481" stroke-miterlimit="10" stroke-dasharray=""/></g><g><g><path fill="none" stroke="none"/><text fill="#000000" stroke="none" font-family="Arial" font-size="13px" font-style="normal" font-weight="bold" text-decoration="undefined" x="876.5" y="461.5" text-anchor="middle" dominant-baseline="central" transform="matrix(1 0 0 1 -230 -30)">Receiver</text></g></g><g><g><path fill="none" stroke="none"/><text fill="#000000" stroke="none" font-family="Arial" font-size="13px" font-style="normal" font-weight="normal" text-decoration="undefined" x="805" y="484.5" text-anchor="start" dominant-baseline="central" transform="matrix(1 0 0 1 -230 -30)">-urgency: Urgency</text></g></g><g><g><path fill="none" stroke="none"/><text fill="#000000" stroke="none" font-family="Arial" font-size="13px" font-style="normal" font-weight="normal" text-decoration="undefined" x="805" y="499.5" text-anchor="start" dominant-baseline="central" transform="matrix(1 0 0 1 -230 -30)">-state: ReceiverState</text></g></g><g><rect fill="#C0C0C0" stroke="none" x="647" y="47" width="128" height="73" transform="matrix(1 0 0 1 -230 -30)" fill-opacity="0.2"/></g><g><rect fill="#ffffff" stroke="none" x="640" y="40" width="128" height="73" transform="matrix(1 0 0 1 -230 -30)"/></g><g><path fill="none" stroke="#000000" paint-order="fill stroke markers" d=" M 410 10 L 538 10 L 538 83 L 410 83 L 410 10 Z Z" stroke-miterlimit="10" stroke-dasharray=""/></g><g><path fill="none" stroke="#000000" paint-order="fill stroke markers" d=" M 410 35 L 538 35" stroke-miterlimit="10" stroke-dasharray=""/></g><g><path fill="none" stroke="#000000" paint-order="fill stroke markers" d=" M 410 58 L 538 58" stroke-miterlimit="10" stroke-dasharray=""/></g><g><g><path fill="none" stroke="none"/><text fill="#000000" stroke="none" font-family="Arial" font-size="13px" font-style="normal" font-weight="bold" text-decoration="undefined" x="704.5" y="53.5" text-anchor="middle" dominant-baseline="central" transform="matrix(1 0 0 1 -230 -30)">Donation</text></g></g><g><g><path fill="none" stroke="none"/><text fill="#000000" stroke="none" font-family="Arial" font-size="13px" font-style="normal" font-weight="normal" text-decoration="undefined" x="645" y="76.5" text-anchor="start" dominant-baseline="central" transform="matrix(1 0 0 1 -230 -30)">-donationDate: Date</text></g></g><g><path fill="none" stroke="#000000" paint-order="fill stroke markers" d=" M 547 233 L 657 183" stroke-miterlimit="10" stroke-dasharray="3"/></g><g><path fill="none" stroke="#000000" paint-order="fill stroke markers" d=" M 649.4901523297945 191.03754862942105 L 657 183 L 646.0063306467393 183.37314092669993" stroke-miterlimit="10" stroke-dasharray=""/></g><g><path fill="none" stroke="#000000" paint-order="fill stroke markers" d=" M 606 417 L 547 350" stroke-miterlimit="10" stroke-dasharray=""/></g><g><path fill="#FFFFFF" stroke="none" paint-order="stroke fill markers" d=" M 566.7510372122326 359.6900221383134 L 547 350 L 554.1142119843884 370.81797271208666"/></g><g><path fill="none" stroke="#000000" paint-order="fill stroke markers" d=" M 566.7510372122326 359.6900221383134 L 547 350 L 554.1142119843884 370.81797271208666 L 566.7510372122326 359.6900221383134" stroke-miterlimit="10" stroke-dasharray=""/></g><g><path fill="none" stroke="#000000" paint-order="fill stroke markers" d=" M 326 425 L 401 345" stroke-miterlimit="10" stroke-dasharray=""/></g><g><path fill="#FFFFFF" stroke="none" paint-order="stroke fill markers" d=" M 393.2406569998492 365.58622345662286 L 401 345 L 380.95665774184135 354.06997415224055"/></g><g><path fill="none" stroke="#000000" paint-order="fill stroke markers" d=" M 393.2406569998492 365.58622345662286 L 401 345 L 380.95665774184135 354.06997415224055 L 393.2406569998492 365.58622345662286" stroke-miterlimit="10" stroke-dasharray=""/></g><g><path fill="none" stroke="#000000" paint-order="fill stroke markers" d=" M 209 469 L 111 467" stroke-miterlimit="10" stroke-dasharray="3"/></g><g><path fill="none" stroke="#000000" paint-order="fill stroke markers" d=" M 121.24644981742091 462.9987169383965 L 111 467 L 121.07466853529269 471.4159997626793" stroke-miterlimit="10" stroke-dasharray=""/></g><g><path fill="none" stroke="#000000" paint-order="fill stroke markers" d=" M 723 463 L 785 463" stroke-miterlimit="10" stroke-dasharray="3"/></g><g><path fill="none" stroke="#000000" paint-order="fill stroke markers" d=" M 774.8373251423759 467.209517756016 L 785 463 L 774.8373251423758 458.790482243984" stroke-miterlimit="10" stroke-dasharray=""/></g><g><path fill="none" stroke="#000000" paint-order="fill stroke markers" d=" M 401 231 L 284 173" stroke-miterlimit="10" stroke-dasharray="3"/></g><g><path fill="none" stroke="#000000" paint-order="fill stroke markers" d=" M 294.9749324153761 173.7421984087341 L 284 173 L 291.2356356061747 181.28526266177823" stroke-miterlimit="10" stroke-dasharray=""/></g><g><path fill="none" stroke="#000000" paint-order="fill stroke markers" d=" M 647 507 L 649 585" stroke-miterlimit="10" stroke-dasharray="3"/></g><g><path fill="none" stroke="#000000" paint-order="fill stroke markers" d=" M 644.5313695737947 574.9485651713802 L 649 585 L 652.9476388509854 574.732763395042" stroke-miterlimit="10" stroke-dasharray=""/></g><g><rect fill="#C0C0C0" stroke="none" x="447" y="623" width="135.74072265625" height="133" transform="matrix(1 0 0 1 -230 -30)" fill-opacity="0.2"/></g><g><rect fill="#ffffff" stroke="none" x="440" y="616" width="135.74072265625" height="133" transform="matrix(1 0 0 1 -230 -30)"/></g><g><path fill="none" stroke="#000000" paint-order="fill stroke markers" d=" M 210 586 L 345.74072265625 586 L 345.74072265625 719 L 210 719 L 210 586 Z Z" stroke-miterlimit="10" stroke-dasharray=""/></g><g><path fill="none" stroke="#000000" paint-order="fill stroke markers" d=" M 210 611 L 345.74072265625 611" stroke-miterlimit="10" stroke-dasharray=""/></g><g><path fill="none" stroke="#000000" paint-order="fill stroke markers" d=" M 210 709 L 345.74072265625 709" stroke-miterlimit="10" stroke-dasharray=""/></g><g><g><path fill="none" stroke="none"/><text fill="#000000" stroke="none" font-family="Arial" font-size="13px" font-style="normal" font-weight="bold" text-decoration="undefined" x="508.370361328125" y="629.5" text-anchor="middle" dominant-baseline="central" transform="matrix(1 0 0 1 -230 -30)">MedicalProfile</text></g></g><g><g><path fill="none" stroke="none"/><text fill="#000000" stroke="none" font-family="Arial" font-size="13px" font-style="normal" font-weight="normal" text-decoration="undefined" x="445" y="652.5" text-anchor="start" dominant-baseline="central" transform="matrix(1 0 0 1 -230 -30)">-isPregnant: bool</text></g></g><g><g><path fill="none" stroke="none"/><text fill="#000000" stroke="none" font-family="Arial" font-size="13px" font-style="normal" font-weight="normal" text-decoration="undefined" x="445" y="667.5" text-anchor="start" dominant-baseline="central" transform="matrix(1 0 0 1 -230 -30)">-isBreastfeeding: bool</text></g></g><g><g><path fill="none" stroke="none"/><text fill="#000000" stroke="none" font-family="Arial" font-size="13px" font-style="normal" font-weight="normal" text-decoration="undefined" x="445" y="682.5" text-anchor="start" dominant-baseline="central" transform="matrix(1 0 0 1 -230 -30)">-hasHIV: bool</text></g></g><g><g><path fill="none" stroke="none"/><text fill="#000000" stroke="none" font-family="Arial" font-size="13px" font-style="normal" font-weight="normal" text-decoration="undefined" x="445" y="697.5" text-anchor="start" dominant-baseline="central" transform="matrix(1 0 0 1 -230 -30)">-hasHepatitisB: bool</text></g></g><g><g><path fill="none" stroke="none"/><text fill="#000000" stroke="none" font-family="Arial" font-size="13px" font-style="normal" font-weight="normal" text-decoration="undefined" x="445" y="712.5" text-anchor="start" dominant-baseline="central" transform="matrix(1 0 0 1 -230 -30)">-hasHepatitisC: bool</text></g></g><g><g><path fill="none" stroke="none"/><text fill="#000000" stroke="none" font-family="Arial" font-size="13px" font-style="normal" font-weight="normal" text-decoration="undefined" x="445" y="727.5" text-anchor="start" dominant-baseline="central" transform="matrix(1 0 0 1 -230 -30)">-hasDiabetes: bool</text></g></g><g><path fill="none" stroke="#000000" paint-order="fill stroke markers" d=" M 280 585 L 282 515" stroke-miterlimit="10" stroke-dasharray=""/></g><g><path fill="#000000" stroke="none" paint-order="stroke fill markers" d=" M 285.9175569405878 525.2787522402894 L 282 515 L 277.5019556671291 525.038306489619 L 281.3716849742247 536.9910259021353"/></g><g><path fill="none" stroke="#000000" paint-order="fill stroke markers" d=" M 285.9175569405878 525.2787522402894 L 282 515 L 277.5019556671291 525.038306489619 L 281.3716849742247 536.9910259021353 L 285.9175569405878 525.2787522402894" stroke-miterlimit="10" stroke-dasharray=""/></g><g><path fill="none" stroke="#000000" paint-order="fill stroke markers" d=" M 474 185 L 474 84" stroke-miterlimit="10" stroke-dasharray=""/></g><g><rect fill="#ffffff" stroke="none" x="683" y="183" width="12.65087890625" height="13" transform="matrix(1 0 0 1 -230 -30)"/></g><g><g><path fill="none" stroke="none"/><text fill="#000000" stroke="none" font-family="Arial" font-size="13px" font-style="normal" font-weight="normal" text-decoration="undefined" x="689.325439453125" y="189.5" text-anchor="middle" dominant-baseline="central" transform="matrix(1 0 0 1 -230 -30)">+*</text></g></g><g><rect fill="#ffffff" stroke="none" x="677" y="133" width="24.93359375" height="13" transform="matrix(1 0 0 1 -230 -30)"/></g><g><g><path fill="none" stroke="none"/><text fill="#000000" stroke="none" font-family="Arial" font-size="13px" font-style="normal" font-weight="normal" text-decoration="undefined" x="689.466796875" y="139.5" text-anchor="middle" dominant-baseline="central" transform="matrix(1 0 0 1 -230 -30)">+*</text></g></g></g></svg>